<svg width="100" height="100" viewBox="0 0 100 100" fill="none" xmlns="http://www.w3.org/2000/svg">
<path d="M33.7021 38.9489C33.7156 38.6583 33.7094 37.7656 33.0823 37.0562C32.2594 36.1229 30.6875 35.8864 30.2969 36.4C30 36.7927 30.3917 37.6239 30.776 38.0906C31.7667 39.2594 33.5271 38.9823 33.7021 38.9489Z" fill="#F5F5F5"/>
<path d="M66.2979 38.9489C66.2844 38.6583 66.2906 37.7656 66.9177 37.0562C67.7406 36.1229 69.3125 35.8864 69.7031 36.4C70 36.7927 69.6083 37.6239 69.2239 38.0906C68.2333 39.2594 66.4729 38.9823 66.2979 38.9489Z" fill="#F5F5F5"/>
<mask id="mask0_33_268" style="mask-type:luminance" maskUnits="userSpaceOnUse" x="37" y="30" width="26" height="9">
<path d="M37.3333 30.2917H62.9333V38.6667H37.3333V30.2917Z" fill="white"/>
</mask>
<g mask="url(#mask0_33_268)">
<path d="M60.4969 38.6177H43.6438C43.475 38.6177 43.3198 38.6239 43.0031 38.6177C42.1938 38.6177 41.7958 38.6177 41.7146 38.5771C41.0333 38.2594 41.5729 35.2781 41.8563 33.9125C41.4385 34.7354 41.075 35.5802 40.7635 36.4479C40.3115 37.7323 40.2042 38.2792 39.7052 38.5229C39.2063 38.7656 38.3354 38.4885 37.8906 38.0021C37.2771 37.326 37.1823 36.1708 37.7083 35.1906L38.5521 32.6833C38.8885 31.6687 39.9 30.3167 42.2542 30.3167H58.7979C60.774 30.3167 61.6031 31.6896 61.9344 32.7167L62.7427 35.2312C63.276 36.8875 62.1292 38.6177 60.4969 38.6177Z" fill="#F5F5F5"/>
</g>
<path d="M42.3084 46.2281C42.2677 46.2958 40.6625 45.5594 39.0438 44.2948C36.5281 42.3354 35.1188 39.9823 35.1865 39.9219C35.2542 39.8615 35.8136 40.6719 37.2906 42.1052C37.7896 42.5854 38.6188 43.3896 39.7594 44.3156C41.3031 45.5729 42.3354 46.1813 42.3084 46.2281Z" fill="#F5F5F5"/>
<path d="M57.4625 46.2281C57.5031 46.2958 59.1083 45.5594 60.7271 44.2948C63.2427 42.3354 64.6521 39.9823 64.5844 39.9219C64.5167 39.8615 63.95 40.6719 62.474 42.1052C61.9813 42.5854 61.1448 43.3896 60.0115 44.3156C58.4677 45.5729 57.4292 46.1813 57.4625 46.2281Z" fill="#F5F5F5"/>
<path d="M39.9271 46.6469C39.8198 47.0729 37.7156 47.0729 35.901 46.4042C35.3479 46.2011 32.974 45.3292 32.4208 43.2948C32.3604 43.0781 32.1313 42.2469 32.4552 42.0177C32.9063 41.7 33.9927 42.9031 36.1375 44.3354C38.5917 45.9646 40.0219 46.2823 39.9271 46.6469Z" fill="#F5F5F5"/>
<path d="M60.1469 46.6469C60.2542 47.0729 62.3583 47.0729 64.1729 46.4042C64.726 46.2011 67.1 45.3292 67.6531 43.2948C67.7135 43.0781 67.9427 42.2469 67.6198 42.0177C67.1677 41.7 66.075 42.9031 63.9364 44.3354C61.4823 45.9646 60.0521 46.2823 60.1469 46.6469Z" fill="#F5F5F5"/>
<path d="M58.7573 47.7969C58.5479 47.5667 58.2781 47.276 57.8271 47.1479C57.6146 47.0875 57.3989 47.0677 57.1792 47.0865L50.1177 47.1406L43.0635 47.0865C42.8437 47.0677 42.6281 47.0875 42.4156 47.1479C41.9646 47.276 41.6948 47.5667 41.4854 47.7969C41.0583 48.274 40.775 48.826 40.6354 49.4521C40.8083 49.1375 41.0219 48.8542 41.276 48.601C41.5323 48.351 41.85 48.0396 42.3489 47.8906C42.5021 47.8417 42.6594 47.8125 42.8208 47.8031H57.4219C57.5833 47.8125 57.7406 47.8417 57.8937 47.8906C58.3927 48.0396 58.7104 48.351 58.9667 48.601C59.2208 48.8542 59.4344 49.1375 59.6073 49.4521C59.5062 49.0396 59.2906 48.3781 58.7573 47.7969Z" fill="#F5F5F5"/>
<mask id="mask1_33_268" style="mask-type:luminance" maskUnits="userSpaceOnUse" x="32" y="49" width="36" height="4">
<path d="M32.2667 49.3333H67.7333V52.8917H32.2667V49.3333Z" fill="white"/>
</mask>
<g mask="url(#mask1_33_268)">
<path d="M65.9333 51.4198C65.4115 51.7386 64.8521 51.9615 64.2542 52.0886C63.5896 52.2229 62.9219 52.2417 62.251 52.1427C61.7115 52.0615 61.8187 52.0011 59.9844 51.4531C59.2365 51.2302 58.8656 51.1281 58.3865 51.0615C57.9729 51 57.5573 50.9729 57.1385 50.9802H43.1042C42.6833 50.9729 42.2656 51 41.85 51.0615C41.3771 51.1281 41.0062 51.2302 40.2583 51.4531C38.424 52.0011 38.525 52.0615 37.9917 52.1427C37.3208 52.2417 36.6531 52.224 35.9885 52.0886C35.3906 51.9615 34.8312 51.7386 34.3094 51.4198C33.5365 50.9292 32.9385 50.2781 32.5156 49.4656C32.7552 50.3104 33.1979 51.0292 33.8437 51.6219C34.7948 52.4875 35.8271 52.6896 36.3458 52.7917C37.1052 52.8656 37.8615 52.8365 38.6125 52.7031C39.2208 52.5771 39.8167 52.4063 40.4 52.1896L40.5885 52.1156C40.6781 52.075 40.7708 52.0417 40.8646 52.0146C41.3677 51.8563 41.8823 51.7729 42.4094 51.7636H57.8333C58.3604 51.7729 58.875 51.8563 59.3781 52.0146C59.4719 52.0427 59.5646 52.0761 59.6542 52.1156L59.8427 52.1896C60.426 52.4063 61.0219 52.5771 61.6302 52.7031C62.3812 52.8365 63.1375 52.8656 63.8969 52.7917C64.4156 52.6896 65.4479 52.4875 66.3917 51.6219C67.0417 51.0313 67.4875 50.3125 67.7271 49.4656C67.3042 50.2781 66.7062 50.9292 65.9333 51.4198Z" fill="#F5F5F5"/>
</g>
<path d="M31.4629 58.8645H33.94V59.6905C33.94 60.1447 33.5692 60.5155 33.115 60.5155H30.6369C30.1838 60.5155 29.8119 60.1447 29.8119 59.6905V57.2124C29.8119 56.7582 30.1838 56.3874 30.6369 56.3874H33.115C33.5692 56.3874 33.94 56.7582 33.94 57.2124H34.766C34.741 56.2968 33.9983 55.5614 33.115 55.5614H30.6369C29.7129 55.5614 28.9858 56.3374 28.9858 57.2124V59.6905C28.9858 60.6228 29.7535 61.3416 30.6369 61.3416H33.115C34.039 61.3416 34.766 60.5655 34.766 59.6905V58.0385H31.4629V58.8645Z" fill="#F5F5F5"/>
<path d="M40.3643 56.3874C40.8184 56.3874 41.1903 56.7582 41.1903 57.2124V58.8645H37.0611V57.2124C37.0611 56.7582 37.433 56.3874 37.8872 56.3874H40.3643ZM42.0153 57.2124C41.9903 56.2968 41.2476 55.5614 40.3643 55.5614H37.8872C36.9622 55.5614 36.2351 56.3374 36.2351 57.2124V61.3416H37.0611V59.6905H41.1903V61.3416H42.0153V57.2124Z" fill="#F5F5F5"/>
<path d="M48.5224 58.0385C48.5224 58.4926 48.1506 58.8645 47.6964 58.8645H44.3933V56.3874H47.6964C48.1506 56.3874 48.5224 56.7582 48.5224 57.2124V58.0385ZM49.3474 61.3416V60.7551L48.1995 59.6072C48.8849 59.376 49.3474 58.7405 49.3474 58.0385V57.2124C49.3474 56.2968 48.5631 55.5614 47.6964 55.5614H43.5672V61.3416H44.3933V59.6905H47.1099L48.761 61.3416H49.3474Z" fill="#F5F5F5"/>
<path d="M54.9459 56.3874C55.4001 56.3874 55.772 56.7582 55.772 57.2124V58.8645H51.6428V57.2124C51.6428 56.7582 52.0147 56.3874 52.4689 56.3874H54.9459ZM56.597 57.2124C56.572 56.2968 55.8293 55.5614 54.9459 55.5614H52.4689C51.5439 55.5614 50.8168 56.3374 50.8168 57.2124V61.3416H51.6428V59.6905H55.772V61.3416H56.597V57.2124Z" fill="#F5F5F5"/>
<path d="M60.5437 58.8645H63.0208V59.6905C63.0208 60.1447 62.65 60.5155 62.1958 60.5155H59.7177C59.2645 60.5155 58.8927 60.1447 58.8927 59.6905V57.2124C58.8927 56.7582 59.2645 56.3874 59.7177 56.3874H62.1958C62.65 56.3874 63.0208 56.7582 63.0208 57.2124H63.8468C63.8218 56.2968 63.0791 55.5614 62.1958 55.5614H59.7177C58.7937 55.5614 58.0666 56.3374 58.0666 57.2124V59.6905C58.0666 60.6228 58.8343 61.3416 59.7177 61.3416H62.1958C63.1197 61.3416 63.8468 60.5655 63.8468 59.6905V58.0385H60.5437V58.8645Z" fill="#F5F5F5"/>
<path d="M66.1419 56.3874H71.0961V55.5614H65.3159V61.3416H71.0961V60.5155H66.1419V58.8645H70.2711V58.0385H66.1419V56.3874Z" fill="#F5F5F5"/>
<path d="M39.2264 67.1572L40.5983 64.5759H40.1983L39.0629 66.7311L37.9191 64.5759H37.5191L38.8952 67.1572H39.2264Z" fill="#F5F5F5"/>
<path d="M41.4329 67.2134C41.5882 67.2134 41.7038 67.0968 41.7038 66.9426C41.7038 66.7874 41.5882 66.6707 41.4329 66.6707C41.2788 66.6707 41.1621 66.7874 41.1621 66.9426C41.1621 67.0968 41.2788 67.2134 41.4329 67.2134Z" fill="#F5F5F5"/>
<path d="M44.1473 66.2926C44.6723 66.2926 45.0859 66.0426 45.0859 65.4322C45.0859 64.8301 44.6723 64.5759 44.1473 64.5759H42.5734V67.1572H42.9348V66.2926H44.1473ZM44.1473 64.9113C44.4661 64.9113 44.7244 65.0624 44.7244 65.4322C44.7244 65.8103 44.4619 65.9572 44.1473 65.9572H42.9348V64.9113H44.1473Z" fill="#F5F5F5"/>
<path d="M48.3241 67.1572H48.7241L47.3523 64.5759H47.021L45.645 67.1572H46.045L46.3502 66.5811H48.0189L48.3241 67.1572ZM47.8429 66.2447H46.5262L47.1887 65.002L47.8429 66.2447Z" fill="#F5F5F5"/>
<path d="M52.0192 67.1572L51.2921 66.2843C51.714 66.2322 52.0244 65.9613 52.0244 65.4322C52.0244 64.8301 51.6109 64.5759 51.0859 64.5759H49.5119V67.1572H49.8734V66.2926H50.8536L51.5723 67.1572H52.0192ZM51.0859 64.9113C51.4046 64.9113 51.6629 65.0624 51.6629 65.4322C51.6629 65.8103 51.4004 65.9572 51.0859 65.9572H49.8734V64.9113H51.0859Z" fill="#F5F5F5"/>
<path d="M55.525 67.1572L54.7979 66.2843C55.2198 66.2322 55.5302 65.9613 55.5302 65.4322C55.5302 64.8301 55.1167 64.5759 54.5917 64.5759H53.0177V67.1572H53.3792V66.2926H54.3594L55.0781 67.1572H55.525ZM54.5917 64.9113C54.9104 64.9113 55.1687 65.0624 55.1687 65.4322C55.1687 65.8103 54.9062 65.9572 54.5917 65.9572H53.3792V64.9113H54.5917Z" fill="#F5F5F5"/>
<path d="M59.2506 65.8666C59.2506 64.9155 58.6183 64.5249 57.8225 64.5249C57.0267 64.5249 56.3944 64.9155 56.3944 65.8666C56.3944 66.8176 57.0267 67.2093 57.8225 67.2093C58.6183 67.2093 59.2506 66.8176 59.2506 65.8666ZM58.8892 65.8666C58.8892 66.5853 58.4121 66.8728 57.8225 66.8728C57.2329 66.8728 56.7558 66.5853 56.7558 65.8666C56.7558 65.1478 57.2371 64.8603 57.8225 64.8603C58.4079 64.8603 58.8892 65.1478 58.8892 65.8666Z" fill="#F5F5F5"/>
<path d="M61.3924 67.1572V64.9113H62.4601V64.5759H59.9299V64.9113H61.031V67.1572H61.3924Z" fill="#F5F5F5"/>
</svg>
